<svg width="106" height="36" viewBox="0 0 106 36" fill="none" xmlns="http://www.w3.org/2000/svg">
<path d="M11.74 0.899999V4.02H7.98V15H4.06V4.02H0.34V0.899999H11.74ZM23.9103 9.26C23.9103 9.56667 23.8903 9.87333 23.8503 10.18H16.4303C16.4703 10.7933 16.637 11.2533 16.9303 11.56C17.237 11.8533 17.6236 12 18.0903 12C18.7436 12 19.2103 11.7067 19.4903 11.12H23.6703C23.497 11.8933 23.157 12.5867 22.6503 13.2C22.157 13.8 21.5303 14.2733 20.7703 14.62C20.0103 14.9667 19.1703 15.14 18.2503 15.14C17.1436 15.14 16.157 14.9067 15.2903 14.44C14.437 13.9733 13.7636 13.3067 13.2703 12.44C12.7903 11.5733 12.5503 10.5533 12.5503 9.38C12.5503 8.20667 12.7903 7.19333 13.2703 6.34C13.7503 5.47333 14.417 4.80667 15.2703 4.34C16.137 3.87333 17.1303 3.64 18.2503 3.64C19.357 3.64 20.337 3.86667 21.1903 4.32C22.0436 4.77333 22.7103 5.42667 23.1903 6.28C23.6703 7.12 23.9103 8.11333 23.9103 9.26ZM19.9103 8.28C19.9103 7.8 19.7503 7.42667 19.4303 7.16C19.1103 6.88 18.7103 6.74 18.2303 6.74C17.7503 6.74 17.357 6.87333 17.0503 7.14C16.7436 7.39333 16.5436 7.77333 16.4503 8.28H19.9103ZM40.1745 3.68C41.5879 3.68 42.6945 4.10667 43.4945 4.96C44.3079 5.81333 44.7145 6.98 44.7145 8.46V15H40.7945V8.98C40.7945 8.38 40.6279 7.91333 40.2945 7.58C39.9612 7.24667 39.5079 7.08 38.9345 7.08C38.3612 7.08 37.9079 7.24667 37.5745 7.58C37.2412 7.91333 37.0745 8.38 37.0745 8.98V15H33.1545V8.98C33.1545 8.38 32.9879 7.91333 32.6545 7.58C32.3345 7.24667 31.8879 7.08 31.3145 7.08C30.7279 7.08 30.2679 7.24667 29.9345 7.58C29.6012 7.91333 29.4345 8.38 29.4345 8.98V15H25.5145V3.78H29.4345V5.26C29.7812 4.78 30.2279 4.4 30.7745 4.12C31.3345 3.82667 31.9745 3.68 32.6945 3.68C33.5212 3.68 34.2545 3.86 34.8945 4.22C35.5479 4.58 36.0612 5.08667 36.4345 5.74C36.8345 5.12667 37.3612 4.63333 38.0145 4.26C38.6679 3.87333 39.3879 3.68 40.1745 3.68ZM50.7822 5.34C51.0889 4.82 51.5222 4.40667 52.0822 4.1C52.6422 3.79333 53.3022 3.64 54.0622 3.64C54.9555 3.64 55.7622 3.87333 56.4822 4.34C57.2155 4.80667 57.7889 5.47333 58.2022 6.34C58.6289 7.20667 58.8422 8.22 58.8422 9.38C58.8422 10.54 58.6289 11.56 58.2022 12.44C57.7889 13.3067 57.2155 13.9733 56.4822 14.44C55.7622 14.9067 54.9555 15.14 54.0622 15.14C53.3022 15.14 52.6422 14.9867 52.0822 14.68C51.5355 14.3733 51.1022 13.96 50.7822 13.44V20.36H46.8622V3.78H50.7822V5.34ZM54.8622 9.38C54.8622 8.64667 54.6622 8.08 54.2622 7.68C53.8755 7.26667 53.3955 7.06 52.8222 7.06C52.2489 7.06 51.7622 7.26667 51.3622 7.68C50.9755 8.09333 50.7822 8.66 50.7822 9.38C50.7822 10.1133 50.9755 10.6867 51.3622 11.1C51.7622 11.5133 52.2489 11.72 52.8222 11.72C53.3955 11.72 53.8755 11.5133 54.2622 11.1C54.6622 10.6733 54.8622 10.1 54.8622 9.38ZM71.1759 9.26C71.1759 9.56667 71.1559 9.87333 71.1159 10.18H63.6959C63.7359 10.7933 63.9026 11.2533 64.1959 11.56C64.5026 11.8533 64.8893 12 65.3559 12C66.0093 12 66.4759 11.7067 66.7559 11.12H70.9359C70.7626 11.8933 70.4226 12.5867 69.9159 13.2C69.4226 13.8 68.7959 14.2733 68.0359 14.62C67.2759 14.9667 66.4359 15.14 65.5159 15.14C64.4093 15.14 63.4226 14.9067 62.5559 14.44C61.7026 13.9733 61.0293 13.3067 60.5359 12.44C60.0559 11.5733 59.8159 10.5533 59.8159 9.38C59.8159 8.20667 60.0559 7.19333 60.5359 6.34C61.0159 5.47333 61.6826 4.80667 62.5359 4.34C63.4026 3.87333 64.3959 3.64 65.5159 3.64C66.6226 3.64 67.6026 3.86667 68.4559 4.32C69.3093 4.77333 69.9759 5.42667 70.4559 6.28C70.9359 7.12 71.1759 8.11333 71.1759 9.26ZM67.1759 8.28C67.1759 7.8 67.0159 7.42667 66.6959 7.16C66.3759 6.88 65.9759 6.74 65.4959 6.74C65.0159 6.74 64.6226 6.87333 64.3159 7.14C64.0093 7.39333 63.8093 7.77333 63.7159 8.28H67.1759ZM5.04 20.9V35H1.12V20.9H5.04ZM11.1923 25.34C11.499 24.8067 11.9323 24.3933 12.4923 24.1C13.0523 23.7933 13.7123 23.64 14.4723 23.64C15.3657 23.64 16.1723 23.8733 16.8923 24.34C17.6257 24.8067 18.199 25.4733 18.6123 26.34C19.039 27.2067 19.2523 28.22 19.2523 29.38C19.2523 30.54 19.039 31.56 18.6123 32.44C18.199 33.3067 17.6257 33.9733 16.8923 34.44C16.1723 34.9067 15.3657 35.14 14.4723 35.14C13.7123 35.14 13.0523 34.9933 12.4923 34.7C11.9323 34.3933 11.499 33.9733 11.1923 33.44V35H7.27234V20.2H11.1923V25.34ZM15.2723 29.38C15.2723 28.6467 15.0723 28.08 14.6723 27.68C14.2857 27.2667 13.8057 27.06 13.2323 27.06C12.659 27.06 12.1723 27.2667 11.7723 27.68C11.3857 28.0933 11.1923 28.66 11.1923 29.38C11.1923 30.1133 11.3857 30.6867 11.7723 31.1C12.1723 31.5133 12.659 31.72 13.2323 31.72C13.8057 31.72 14.2857 31.5133 14.6723 31.1C15.0723 30.6733 15.2723 30.1 15.2723 29.38ZM32.3461 23.78V35H28.4061V33.4C28.0728 33.9067 27.6128 34.32 27.0261 34.64C26.4394 34.9467 25.7661 35.1 25.0061 35.1C23.6994 35.1 22.6661 34.6733 21.9061 33.82C21.1594 32.9533 20.7861 31.78 20.7861 30.3V23.78H24.6861V29.8C24.6861 30.44 24.8528 30.9467 25.1861 31.32C25.5328 31.68 25.9861 31.86 26.5461 31.86C27.1194 31.86 27.5728 31.68 27.9061 31.32C28.2394 30.9467 28.4061 30.44 28.4061 29.8V23.78H32.3461ZM54.8652 20.9V35H50.9452V27.22L48.2852 35H45.0052L42.3252 27.16V35H38.4052V20.9H43.1452L46.6852 30.06L50.1452 20.9H54.8652ZM56.4566 29.38C56.4566 28.22 56.6632 27.2067 57.0766 26.34C57.5032 25.4733 58.0766 24.8067 58.7966 24.34C59.5299 23.8733 60.3432 23.64 61.2366 23.64C62.0099 23.64 62.6766 23.7933 63.2366 24.1C63.7966 24.4067 64.2299 24.82 64.5366 25.34V23.78H68.4566V35H64.5366V33.44C64.2299 33.96 63.7899 34.3733 63.2166 34.68C62.6566 34.9867 61.9966 35.14 61.2366 35.14C60.3432 35.14 59.5299 34.9067 58.7966 34.44C58.0766 33.9733 57.5032 33.3067 57.0766 32.44C56.6632 31.56 56.4566 30.54 56.4566 29.38ZM64.5366 29.38C64.5366 28.66 64.3366 28.0933 63.9366 27.68C63.5499 27.2667 63.0699 27.06 62.4966 27.06C61.9099 27.06 61.4232 27.2667 61.0366 27.68C60.6499 28.08 60.4566 28.6467 60.4566 29.38C60.4566 30.1 60.6499 30.6733 61.0366 31.1C61.4232 31.5133 61.9099 31.72 62.4966 31.72C63.0699 31.72 63.5499 31.5133 63.9366 31.1C64.3366 30.6867 64.5366 30.1133 64.5366 29.38ZM74.6103 25.76C75.0503 25.12 75.5836 24.6133 76.2103 24.24C76.837 23.8667 77.5103 23.68 78.2303 23.68V27.86H77.1303C76.277 27.86 75.6436 28.0267 75.2303 28.36C74.817 28.6933 74.6103 29.2733 74.6103 30.1V35H70.6903V23.78H74.6103V25.76ZM94.2956 23.68C95.709 23.68 96.8156 24.1067 97.6156 24.96C98.429 25.8133 98.8356 26.98 98.8356 28.46V35H94.9156V28.98C94.9156 28.38 94.749 27.9133 94.4156 27.58C94.0823 27.2467 93.629 27.08 93.0556 27.08C92.4823 27.08 92.029 27.2467 91.6956 27.58C91.3623 27.9133 91.1956 28.38 91.1956 28.98V35H87.2756V28.98C87.2756 28.38 87.109 27.9133 86.7756 27.58C86.4556 27.2467 86.009 27.08 85.4356 27.08C84.849 27.08 84.389 27.2467 84.0556 27.58C83.7223 27.9133 83.5556 28.38 83.5556 28.98V35H79.6356V23.78H83.5556V25.26C83.9023 24.78 84.349 24.4 84.8956 24.12C85.4556 23.8267 86.0956 23.68 86.8156 23.68C87.6423 23.68 88.3756 23.86 89.0156 24.22C89.669 24.58 90.1823 25.0867 90.5556 25.74C90.9556 25.1267 91.4823 24.6333 92.1356 24.26C92.789 23.8733 93.509 23.68 94.2956 23.68ZM102.963 22.74C102.27 22.74 101.71 22.5533 101.283 22.18C100.87 21.7933 100.663 21.3133 100.663 20.74C100.663 20.1533 100.87 19.6667 101.283 19.28C101.71 18.8933 102.27 18.7 102.963 18.7C103.643 18.7 104.19 18.8933 104.603 19.28C105.03 19.6667 105.243 20.1533 105.243 20.74C105.243 21.3133 105.03 21.7933 104.603 22.18C104.19 22.5533 103.643 22.74 102.963 22.74ZM104.903 23.78V35H100.983V23.78H104.903Z" fill="#355933"/>
</svg>
